<svg xmlns="http://www.w3.org/2000/svg" width="7.301" height="11.141" viewBox="0 0 7.301 11.141">
  <g id="arrow-updown" transform="translate(-1223.806 -382.43)">
    <path id="Icon_awesome-caret-up" data-name="Icon awesome-caret-up" d="M7.6,17.031H1.286a.491.491,0,0,1-.347-.838L4.1,13.035a.491.491,0,0,1,.694,0L7.95,16.193A.491.491,0,0,1,7.6,17.031Z" transform="translate(1223.011 369.539)" fill="#929292"/>
    <path id="Icon_awesome-caret-up-2" data-name="Icon awesome-caret-up" d="M7.6,12.891H1.286a.491.491,0,0,0-.347.838L4.1,16.888a.491.491,0,0,0,.694,0L7.95,13.729A.491.491,0,0,0,7.6,12.891Z" transform="translate(1223.011 376.539)" fill="#929292"/>
  </g>
</svg>
