<svg xmlns="http://www.w3.org/2000/svg" width="23.546" height="23.559" viewBox="0 0 23.546 23.559">
  <g id="Group_14203" data-name="Group 14203" transform="translate(-365.904 -578.004)">
    <path id="Path_109" data-name="Path 109" d="M370.812,211h1.472c.059.013.118.029.177.038.6.094,1.217.15,1.812.285a11.751,11.751,0,0,1,8.87,9.421c.072.429.12.862.178,1.294v1.472c-.014.067-.03.133-.04.2-.077.522-.123,1.051-.233,1.566a11.772,11.772,0,1,1-13.53-14.1C369.947,211.105,370.381,211.059,370.812,211Zm10.67,11.772a9.934,9.934,0,1,0-9.926,9.936A9.949,9.949,0,0,0,381.482,222.772Z" transform="translate(6.129 367.004)"/>
    <path id="Path_110" data-name="Path 110" d="M466.818,303.8c-1.213,0-2.393,0-3.573,0a.915.915,0,0,1-.936-.744,1,1,0,0,1,.185-.755q1.7-2.668,3.393-5.338c.363-.572.724-1.145,1.09-1.715a.915.915,0,0,1,1.635,0q2.233,3.532,4.461,7.067a.929.929,0,0,1-.823,1.489c-1.188-.005-2.376,0-3.6,0v.245c0,1.1,0,2.209,0,3.314a.9.9,0,0,1-.707.9.882.882,0,0,1-1-.454,1.217,1.217,0,0,1-.113-.5c-.01-1.074-.005-2.148-.005-3.222Zm3.869-1.838-2.895-4.589-2.914,4.589Z" transform="translate(-90.101 288.276)"/>
  </g>
</svg>
