<svg xmlns="http://www.w3.org/2000/svg" width="12.079" height="13.421" viewBox="0 0 12.079 13.421">
  <path id="Icon_material-date-range" data-name="Icon material-date-range" d="M8.526,9.039H7.184v1.342H8.526Zm2.684,0H9.868v1.342H11.21Zm2.684,0H12.552v1.342h1.342Zm1.342-4.7h-.671V3H13.223V4.342H7.855V3H6.513V4.342H5.842A1.336,1.336,0,0,0,4.507,5.684L4.5,15.079a1.342,1.342,0,0,0,1.342,1.342h9.394a1.346,1.346,0,0,0,1.342-1.342V5.684A1.346,1.346,0,0,0,15.237,4.342Zm0,10.737H5.842V7.7h9.394Z" transform="translate(-4.5 -3)" fill="#bf161f"/>
</svg>
