<svg xmlns="http://www.w3.org/2000/svg" width="25.977" height="34.635" viewBox="0 0 25.977 34.635">
  <g id="chess" transform="translate(-63.996 0)">
    <g id="Group_13878" data-name="Group 13878" transform="translate(66.162 0)">
      <g id="Group_13877" data-name="Group 13877" transform="translate(0 0)">
        <path id="Path_9031" data-name="Path 9031" d="M119.8,12.011a2.478,2.478,0,0,0-.937-1.7q-2.2-1.744-4.382-3.488l-3.449-2.749A2.373,2.373,0,0,1,110,1.6a1.412,1.412,0,0,0-.481-1.3,1.514,1.514,0,0,0-1.466-.214,4.4,4.4,0,0,0-2.728,2.2,1.591,1.591,0,0,1-1.686,1,5.384,5.384,0,0,0-4.734,2.7,14.308,14.308,0,0,0-2.085,5.176,28.934,28.934,0,0,0-.73,5.631c-.05.859-.054,1.706-.061,2.552,0,.543-.006,1.087-.022,1.831v3.719a1.083,1.083,0,0,0,1.082,1.082H114.4a1.083,1.083,0,0,0,1.082-1.082l-.006-2.678a3.731,3.731,0,0,0-1.037-2.94c-.89-.89-1.836-1.723-1.836-1.723l-.026-.022a6.59,6.59,0,0,1-1.024-1.061l-.823-1.074a4.728,4.728,0,0,0,.855-.141,1.52,1.52,0,0,1,1.186.16,12.476,12.476,0,0,0,1.227.7,3.278,3.278,0,0,0,4.022-.805l1.2-1.45A2.468,2.468,0,0,0,119.8,12.011Zm-2.23.461-1.214,1.463A1.109,1.109,0,0,1,115,14.2a10.8,10.8,0,0,1-1.039-.589,3.674,3.674,0,0,0-2.894-.455,2.477,2.477,0,0,1-2.288-.55l-.591-.483a1.083,1.083,0,0,0-1.546,1.5l3.193,4.167a8.7,8.7,0,0,0,1.351,1.4c.108.1.94.833,1.723,1.619a1.656,1.656,0,0,1,.409,1.279v1.725H98.169V21.043c.015-.565.019-1.126.022-1.686,0-.812.009-1.619.056-2.461a26.783,26.783,0,0,1,.675-5.237,12.406,12.406,0,0,1,1.754-4.434c.92-1.331,1.723-1.829,2.873-1.777a3.762,3.762,0,0,0,3.706-2.186,1.915,1.915,0,0,1,.556-.665,4.619,4.619,0,0,0,1.888,3.18l3.433,2.736q2.189,1.747,4.388,3.494a.326.326,0,0,1,.128.225A.318.318,0,0,1,117.572,12.472Z" transform="translate(-96.004 0)" fill="#fff"/>
      </g>
    </g>
    <g id="Group_13880" data-name="Group 13880" transform="translate(63.996 28.141)">
      <g id="Group_13879" data-name="Group 13879" transform="translate(0)">
        <path id="Path_9032" data-name="Path 9032" d="M87.695,420.9l-2.165-4.33a1.082,1.082,0,0,0-.968-.6H67.244a1.084,1.084,0,0,0-.968.6l-2.165,4.33a1.083,1.083,0,0,0,.968,1.567H86.727a1.082,1.082,0,0,0,.968-1.565Zm-20.865-.6,1.082-2.165H83.894l1.082,2.165Z" transform="translate(-63.996 -415.973)" fill="#fff"/>
      </g>
    </g>
  </g>
</svg>
