<svg xmlns="http://www.w3.org/2000/svg" xmlns:xlink="http://www.w3.org/1999/xlink" width="20.431" height="14.829" viewBox="0 0 20.431 14.829">
  <defs>
    <clipPath id="clip-path"/>
  </defs>
  <g id="Group_13882" data-name="Group 13882" transform="translate(0)" clip-path="url(#clip-path)">
    <g id="Group_14202" data-name="Group 14202">
      <path id="Path_9035" data-name="Path 9035" d="M8.614,286.917c-.005,0-3.507,3.036-6.841,1.048a3.572,3.572,0,0,1-1.73-2.5,3.481,3.481,0,0,1,1.744-3.555c3.186-2.168,6.207,1.742,6.538,2.073s2.669,4.51,7.386,4.572h0c-1.924.228-3.731.869-7.855-3.393-1.6-1.5-3.3-2.871-5.3-2.061a1.776,1.776,0,0,0-.971.946,2.629,2.629,0,0,0,1.069,3.317,3.773,3.773,0,0,0,2.448.576,11.574,11.574,0,0,0,3.508-1.019h0" transform="translate(0 -273.896)" fill="#929292"/>
      <path id="Path_9036" data-name="Path 9036" d="M13.526,154.2a1.991,1.991,0,1,1-1.991-1.991,1.991,1.991,0,0,1,1.991,1.991" transform="translate(-9.293 -148.227)" fill="#929292"/>
      <path id="Path_9037" data-name="Path 9037" d="M237.589,1.991A1.991,1.991,0,1,1,235.6,0a1.991,1.991,0,0,1,1.991,1.991" transform="translate(-227.494)" fill="#929292"/>
      <path id="Path_9038" data-name="Path 9038" d="M173.287,139.885a2.067,2.067,0,0,1,1.351.458s.567-2.441,2.593-2.572,2.724.5,4.075,3.356c.741,1.5,2.114,5.47,5.492,5.383a7.129,7.129,0,0,1-3.749-3.879c-.828-2.463-1.373-5.579-4.816-6.233a4.468,4.468,0,0,0-4.947,3.487" transform="translate(-168.753 -132.817)" fill="#929292"/>
      <path id="Path_9039" data-name="Path 9039" d="M546.148,290.4a5.313,5.313,0,0,1,.344.815c.455-.309,2.925-1.568,4.411.74a2.938,2.938,0,0,1,.414.945,3.943,3.943,0,0,1-1.117,3.268,5.276,5.276,0,0,0,1.524-1.483,3.463,3.463,0,0,0-2.166-5.262,3.906,3.906,0,0,0-3.41.979" transform="translate(-531.858 -281.763)" fill="#929292"/>
      <path id="Path_9040" data-name="Path 9040" d="M599.083,181.234a1.579,1.579,0,1,1-1.579-1.579,1.579,1.579,0,0,1,1.579,1.579" transform="translate(-580.332 -174.954)" fill="#929292"/>
    </g>
  </g>
</svg>
