<svg xmlns="http://www.w3.org/2000/svg" xmlns:xlink="http://www.w3.org/1999/xlink" width="40" height="40" viewBox="0 0 40 40">
  <defs>
    <clipPath id="clip-path">
      <circle id="Ellipse_191" data-name="Ellipse 191" cx="20" cy="20" r="20" transform="translate(425 -948)" fill="#fff" stroke="#bf161f" stroke-width="2"/>
    </clipPath>
  </defs>
  <g id="Group_14204" data-name="Group 14204" transform="translate(-425 -376)">
    <g id="Ellipse_190" data-name="Ellipse 190" transform="translate(425 376)" fill="#fff" stroke="#bf161f" stroke-width="2">
      <circle cx="20" cy="20" r="20" stroke="none"/>
      <circle cx="20" cy="20" r="19" fill="none"/>
    </g>
    <g id="User_Profile_3" data-name="User Profile 3" transform="translate(433 385.336)">
      <path id="Path_2559" data-name="Path 2559" d="M13.318,13h-3.7A4.524,4.524,0,0,0,5,17.408v2.645H17.939V17.408A4.524,4.524,0,0,0,13.318,13Zm2.773,5.29H6.848v-.882a2.711,2.711,0,0,1,2.773-2.645h3.7a2.711,2.711,0,0,1,2.773,2.645Z" transform="translate(-5 -4.563)" fill="#bf161f"/>
      <path id="Path_2560" data-name="Path 2560" d="M11.706,10.816a4.564,4.564,0,0,0,4.706-4.408A4.564,4.564,0,0,0,11.706,2,4.564,4.564,0,0,0,7,6.408,4.57,4.57,0,0,0,11.706,10.816Zm0-7.053A2.739,2.739,0,0,1,14.53,6.408a2.739,2.739,0,0,1-2.824,2.645A2.739,2.739,0,0,1,8.882,6.408a2.739,2.739,0,0,1,2.824-2.645Z" transform="translate(-5.237 -2)" fill="#bf161f"/>
    </g>
    <g id="User_Profile_3-2" data-name="User Profile 3" transform="translate(444.461 385.336)">
      <path id="Path_2559-2" data-name="Path 2559" d="M13.318,13h-3.7A4.524,4.524,0,0,0,5,17.408v2.645H17.939V17.408A4.524,4.524,0,0,0,13.318,13Zm2.773,5.29H6.848v-.882a2.711,2.711,0,0,1,2.773-2.645h3.7a2.711,2.711,0,0,1,2.773,2.645Z" transform="translate(-5 -4.563)" fill="#bf161f"/>
      <path id="Path_2560-2" data-name="Path 2560" d="M11.706,10.816a4.564,4.564,0,0,0,4.706-4.408A4.564,4.564,0,0,0,11.706,2,4.564,4.564,0,0,0,7,6.408,4.57,4.57,0,0,0,11.706,10.816Zm0-7.053A2.739,2.739,0,0,1,14.53,6.408a2.739,2.739,0,0,1-2.824,2.645A2.739,2.739,0,0,1,8.882,6.408a2.739,2.739,0,0,1,2.824-2.645Z" transform="translate(-5.237 -2)" fill="#bf161f"/>
    </g>
    <g id="Mask_Group_35" data-name="Mask Group 35" transform="translate(0 1324)" clip-path="url(#clip-path)">
      <path id="ok-hand-2" d="M8.773,13.963q-.332,0-.663.025A11.954,11.954,0,0,0,3.028,15.5l-.043.026L.411,17.162A.91.91,0,1,0,1.388,18.7L3.932,17.08a10.133,10.133,0,0,1,8.735-.568l.03.012,6.117,2.214a.943.943,0,0,1,.524.563,1.711,1.711,0,0,1,.084.843.964.964,0,0,1-.382.533,1.123,1.123,0,0,1-.922.095l-6.589-1.548A.91.91,0,1,0,11.112,21l6.595,1.549h0a3.037,3.037,0,0,0,2.3-.33,2.671,2.671,0,0,0,.443-.353.911.911,0,0,0,.333-.117l4.707-2.807a.91.91,0,0,0,.092-.063.973.973,0,0,1,1.2,1.53l-6.157,4.765a2.958,2.958,0,0,1-2.514.535l-.011,0L6.87,23.113a.911.911,0,0,0-.647.091L.761,26.239a.91.91,0,1,0,.884,1.591L6.8,24.966,17.7,27.48l-.011,0a4.784,4.784,0,0,0,4.06-.864l6.167-4.771.009-.007a2.794,2.794,0,0,0-3.453-4.394l.092-.063-3.338,1.99a3.367,3.367,0,0,0-.2-.748,2.839,2.839,0,0,0-1.505-1.56l-.044-.018-6.13-2.218h0A11.954,11.954,0,0,0,8.773,13.963Z" transform="translate(429.528 -934.958)" fill="#bf161f"/>
    </g>
  </g>
</svg>
