<svg xmlns="http://www.w3.org/2000/svg" xmlns:xlink="http://www.w3.org/1999/xlink" width="19.242" height="20.822" viewBox="0 0 19.242 20.822">
  <defs>
    <clipPath id="clip-path"/>
  </defs>
  <g id="Group_13883" data-name="Group 13883" transform="translate(0 0)" clip-path="url(#clip-path)">
    <path id="Path_9041" data-name="Path 9041" d="M6.49,10.217a.243.243,0,0,0,.311-.028l.768-.768-2.5-2.5L3.319,6.34,3.6,5.513l1.948.649L8.185,8.8,8.8,8.187,6.16,5.545,5.51,3.6l.827-.276.584,1.752,2.5,2.5.771-.771a.244.244,0,0,0,.028-.312,3.673,3.673,0,0,1-.634-1.921A4.8,4.8,0,1,0,4.536,9.585a3.613,3.613,0,0,1,1.953.632" transform="translate(-0.001 0.001)" fill="#929292"/>
    <path id="Path_9042" data-name="Path 9042" d="M250.341,253.54l.637.637a.436.436,0,0,0,.617,0l2.467-2.467a.436.436,0,0,0,0-.617l-.637-.637Z" transform="translate(-242.773 -242.886)" fill="#929292"/>
    <path id="Path_9043" data-name="Path 9043" d="M322.415,324.382l.329.329a1.308,1.308,0,0,0,1.85-1.85l-.329-.329Z" transform="translate(-312.668 -312.782)" fill="#929292"/>
    <path id="Path_9044" data-name="Path 9044" d="M138.424,131.443a6.865,6.865,0,0,0-6.97-6.758l-.154,0-.045,0a5.28,5.28,0,0,1,.141.953,6.078,6.078,0,0,1,6.024,5.909v.111l1.421,3.316-1.473.628v3.337l-4.225-.528v2.39h-6.865l.812-4.2a3.6,3.6,0,0,0,2.263.779,2.6,2.6,0,0,0,.307-.016l-.114-.894a2.645,2.645,0,0,1-2.268-.963h0l-.145-.173a5.809,5.809,0,0,1-1.457-4.077c0-.019,0-.037.005-.056a5.266,5.266,0,0,1-.962-.17,6.846,6.846,0,0,0,1.48,4.793l-.94,4.975.014,0h-.014l-.168.928h9.123v-.928H134.2v-1.334l4.225.528v-3.7l1.748-.787Z" transform="translate(-120.93 -120.915)" fill="#929292"/>
  </g>
</svg>
