<svg xmlns="http://www.w3.org/2000/svg" width="22.554" height="24.617" viewBox="0 0 22.554 24.617">
  <g id="delete-btn" transform="translate(-495.941 -179.797)">
    <path id="Path_2110" data-name="Path 2110" d="M500.678,204.414c-.09-.024-.18-.051-.271-.073a3.071,3.071,0,0,1-2.419-3.015c-.01-1.266,0-2.532,0-3.8q0-5.625,0-11.25v-.327c-.339,0-.672.005-1,0a1.021,1.021,0,0,1-.225-2.021,2.351,2.351,0,0,1,.406-.031q2.3,0,4.591,0h.318c0-.094.012-.178.012-.262,0-.881,0-1.763,0-2.644a1.06,1.06,0,0,1,1.2-1.193h7.861a1.06,1.06,0,0,1,1.2,1.193q0,1.31,0,2.62v.286h4.97a1.2,1.2,0,0,1,.771.214,1.029,1.029,0,0,1,.36,1.117,1.017,1.017,0,0,1-.95.72c-.342.011-.685,0-1.052,0v.3q0,7.488,0,14.976a3.079,3.079,0,0,1-2.421,3.111c-.091.021-.181.048-.271.073Zm-.637-18.449v.252q0,7.487,0,14.975a1.037,1.037,0,0,0,1.169,1.167q6.009,0,12.018,0a1.611,1.611,0,0,0,.427-.044,1.04,1.04,0,0,0,.738-1.149q0-7.464,0-14.927v-.272Zm4.111-2.087h6.13v-2.012h-6.13Z" transform="translate(0)" fill="#bf161f"/>
    <path id="Path_2111" data-name="Path 2111" d="M617.164,321.678q0,2.259,0,4.517a1.022,1.022,0,1,1-2.036.184c-.005-.072-.007-.144-.007-.216q0-4.481,0-8.962a1.049,1.049,0,0,1,.639-1.081,1.017,1.017,0,0,1,1.4.969c.014,1.145,0,2.29,0,3.436Q617.165,321.1,617.164,321.678Z" transform="translate(-112.003 -128.041)" fill="#bf161f"/>
    <path id="Path_2112" data-name="Path 2112" d="M719.365,321.754c0,1.506,0,3.011,0,4.517a1.021,1.021,0,0,1-2.032.189c-.008-.088-.01-.176-.01-.264q0-4.469,0-8.938a1.054,1.054,0,0,1,.648-1.1,1.006,1.006,0,0,1,1.384.886c.025.928.011,1.858.012,2.787Q719.366,320.793,719.365,321.754Z" transform="translate(-208.049 -128.084)" fill="#bf161f"/>
  </g>
</svg>
