<svg xmlns="http://www.w3.org/2000/svg" width="22.028" height="11.968" viewBox="0 0 22.028 11.968">
  <path id="Path_2584" data-name="Path 2584" d="M5.71,7,9,7.93l-.92,2.75a1,1,0,0,0,.07.79.94.94,0,0,0,.61.49l7,2a.93.93,0,0,0,.54,0l7-2a.94.94,0,0,0,.61-.49,1,1,0,0,0,.07-.79L23,7.93l2-.59V12a1,1,0,0,0,2,0V6a1.1,1.1,0,0,0-.07-.36l-.06-.1a.86.86,0,0,0-.13-.2l-.09-.09a.76.76,0,0,0-.19-.12l-.12-.06h-.05l-10-3a1.14,1.14,0,0,0-.58,0l-10,3A1,1,0,0,0,5.71,7Zm16,3.37L16,12l-5.72-1.63.6-1.82L15.71,10a1.07,1.07,0,0,0,.58,0l4.83-1.45ZM16,4l6.52,2L16,8,9.48,6Z" transform="translate(-4.972 -2.032)" fill="#929292"/>
</svg>
