<svg xmlns="http://www.w3.org/2000/svg" width="40" height="40" viewBox="0 0 40 40">
  <g id="Group_14156" data-name="Group 14156" transform="translate(-423 176)">
    <g id="Ellipse_188" data-name="Ellipse 188" transform="translate(423 -176)" fill="#fff" stroke="#bf161f" stroke-width="2">
      <circle cx="20" cy="20" r="20" stroke="none"/>
      <circle cx="20" cy="20" r="19" fill="none"/>
    </g>
    <g id="mobile" transform="translate(432 -168)">
      <path id="Path_2561" data-name="Path 2561" d="M16.221,19.628a.734.734,0,0,0-.734.734v.389a.345.345,0,0,1-.345.345H4.814a.345.345,0,0,1-.345-.345V3.814a.345.345,0,0,1,.345-.345H15.141a.345.345,0,0,1,.345.345V6.407a.734.734,0,1,0,1.469,0V3.814A1.822,1.822,0,0,0,15.141,2H4.814A1.822,1.822,0,0,0,3,3.814V20.751a1.822,1.822,0,0,0,1.814,1.814H15.141a1.822,1.822,0,0,0,1.814-1.814v-.389A.734.734,0,0,0,16.221,19.628Z" fill="#bf161f"/>
      <path id="Path_2562" data-name="Path 2562" d="M26.079,19.017h-.823l-.551-4.407h.639a.734.734,0,0,0,0-1.469H24.9l.448-1.234a.734.734,0,0,0-.044-.566l-.734-1.469a.734.734,0,0,0-.69-.4h-.734V8.734a.734.734,0,0,0-1.469,0v.734h-.734a.734.734,0,0,0-.654.4l-.734,1.469a.734.734,0,0,0-.044.566l.411,1.234h-.448a.734.734,0,1,0,0,1.469h.639l-.551,4.407h-.823a.734.734,0,0,0,0,1.469h7.345a.734.734,0,0,0,0-1.469ZM21,11.731l.4-.793H23.42l.4.793-.47,1.41h-1.88Zm.588,2.879H23.23l.551,4.407H21.033Z" transform="translate(-3.983 -1.593)" fill="#bf161f"/>
      <path id="Path_2563" data-name="Path 2563" d="M10.734,5a.734.734,0,0,0,0,1.469h2.2a.734.734,0,1,0,0-1.469Z" transform="translate(-1.859 -0.797)" fill="#bf161f"/>
    </g>
  </g>
</svg>
