<svg xmlns="http://www.w3.org/2000/svg" width="13.42" height="13.426" viewBox="0 0 13.42 13.426">
  <g id="exclamation" transform="translate(-398.58 -480.586)">
    <path id="Path_111" data-name="Path 111" d="M405.681,494.012h-.787c-.224-.028-.45-.049-.673-.086a6.729,6.729,0,0,1-5.608-7.3,6.4,6.4,0,0,1,1.638-3.752,6.572,6.572,0,0,1,4.755-2.277,6.379,6.379,0,0,1,3.7.935,6.616,6.616,0,0,1,3.187,4.614c.048.252.071.508.105.762v.787c-.011.094-.022.188-.032.283a6.734,6.734,0,0,1-5.524,5.932C406.191,493.952,405.935,493.978,405.681,494.012Zm-.393-1.222a5.492,5.492,0,1,0-5.491-5.5A5.5,5.5,0,0,0,405.288,492.79Z"/>
    <path id="Path_112" data-name="Path 112" d="M404.682,488.719c0-.62-.005-1.241,0-1.861a.557.557,0,0,1,.357-.521.576.576,0,0,1,.617.074.616.616,0,0,1,.239.526c0,.677,0,1.354,0,2.031,0,.537.008,1.075-.005,1.612a.6.6,0,0,1-.926.488.61.61,0,0,1-.286-.554c0-.6,0-1.2,0-1.8Z"/>
    <path id="Path_113" data-name="Path 113" d="M404.475,484.251a.813.813,0,1,1,.81.809A.814.814,0,0,1,404.475,484.251Z"/>
  </g>
</svg>
