<svg xmlns="http://www.w3.org/2000/svg" xmlns:xlink="http://www.w3.org/1999/xlink" width="18.331" height="20.865" viewBox="0 0 18.331 20.865">
  <defs>
    <clipPath id="clip-path">
      <rect id="Rectangle_1847" data-name="Rectangle 1847" width="18.331" height="20.864" fill="#fff"/>
    </clipPath>
  </defs>
  <g id="gift-icon" clip-path="url(#clip-path)">
    <path id="Path_2359" data-name="Path 2359" d="M3.91,5.383a3.661,3.661,0,0,1-.982-1.872A2.851,2.851,0,0,1,5.042.069,3.61,3.61,0,0,1,8.737,1.492c.081.1.151.216.222.327s.125.214.2.343c.039-.056.073-.1.1-.144a3.8,3.8,0,0,1,3.776-2,2.7,2.7,0,0,1,2.387,2.315,3.379,3.379,0,0,1-.8,2.863c-.042.049-.082.1-.142.172.076.009.13.02.183.02.419,0,.837-.006,1.256,0A2.379,2.379,0,0,1,18.329,7.83c0,1.656,0,3.312,0,4.968,0,1.89,0,3.781,0,5.671a2.355,2.355,0,0,1-2.006,2.367,2.874,2.874,0,0,1-.483.028q-6.674,0-13.349,0A2.366,2.366,0,0,1,0,18.38Q0,13.127,0,7.873a2.385,2.385,0,0,1,2.492-2.49H3.91M9.9,6.795V19.458H15.82a.976.976,0,0,0,1.1-1.094q0-5.221,0-10.442A1,1,0,0,0,15.8,6.795H9.9Zm-1.473,0h-.2q-2.864,0-5.728,0a.987.987,0,0,0-1.09,1.091q0,5.243,0,10.486A.972.972,0,0,0,2.5,19.457h5.93ZM9.864,5.407c.42,0,.8.015,1.18,0a3.547,3.547,0,0,0,2.007-.619,2.189,2.189,0,0,0,1.005-2.128,1.3,1.3,0,0,0-.967-1.178,2.19,2.19,0,0,0-2.28.735,5,5,0,0,0-.945,3.193m-1.4-.028c-.018-.213-.03-.4-.049-.577A5.639,5.639,0,0,0,7.846,2.7,2.316,2.316,0,0,0,5.663,1.4,1.329,1.329,0,0,0,4.272,2.741,2.252,2.252,0,0,0,5.547,4.928a5.277,5.277,0,0,0,2.917.451" transform="translate(0 0)" fill="#fff"/>
  </g>
</svg>
