<svg id="Component_346_1" data-name="Component 346 – 1" xmlns="http://www.w3.org/2000/svg" width="24" height="24" viewBox="0 0 24 24">
  <rect id="Rectangle_2286" data-name="Rectangle 2286" width="24" height="24" fill="none"/>
  <path id="Path_2512" data-name="Path 2512" d="M21,12a9,9,0,0,1-9,9m9-9a9,9,0,0,0-9-9m9,9H3m9,9a9,9,0,0,1-9-9m9,9c1.657,0,3-4.03,3-9s-1.343-9-3-9m0,18c-1.657,0-3-4.03-3-9s1.343-9,3-9M3,12a9,9,0,0,1,9-9" fill="none" stroke="#000" stroke-linecap="round" stroke-linejoin="round" stroke-width="2"/>
</svg>
