<svg xmlns="http://www.w3.org/2000/svg" width="40" height="40" viewBox="0 0 40 40">
  <g id="Group_14154" data-name="Group 14154" transform="translate(-423 -2243)">
    <g id="Ellipse_184" data-name="Ellipse 184" transform="translate(423 2243)" fill="#fff" stroke="#f5a41d" stroke-width="2">
      <circle cx="20" cy="20" r="20" stroke="none"/>
      <circle cx="20" cy="20" r="19" fill="none"/>
    </g>
    <g id="crown" transform="translate(428.99 2247.779)">
      <path id="Path_2570" data-name="Path 2570" d="M24.163,8.822a.826.826,0,0,0-.826-.107l-6.726,2.9L14.57,9.177V6.17h1.653a.826.826,0,0,0,0-1.653H14.57V3.046a.826.826,0,0,0-.826-.826h0a.826.826,0,0,0-.826.826V4.517H11.265a.826.826,0,0,0,0,1.653h1.653V9.177l-2.033,2.438-6.726-2.9a.827.827,0,0,0-1.14.876L4.654,21.1v3.247a.826.826,0,0,0,.826.826H22.006a.826.826,0,0,0,.826-.826V21.1L24.485,9.59a.826.826,0,0,0-.322-.768Zm-1.529,2-1.347,9.395H17.28L18.7,14.631a.826.826,0,0,0-.165-.727l-.826-.958ZM11.909,20.216l-1.4-5.577,3.231-3.875,3.231,3.875-1.4,5.577ZM9.777,12.945l-.826.958a.826.826,0,0,0-.165.727l1.421,5.586H6.2L4.853,10.822Zm11.4,10.576H6.307V21.869H21.18Z" transform="translate(0 0)" fill="#f5a41d"/>
    </g>
  </g>
</svg>
