<svg xmlns="http://www.w3.org/2000/svg" width="40" height="40" viewBox="0 0 40 40">
  <g id="Group_14203" data-name="Group 14203" transform="translate(-425 1715)">
    <g id="Ellipse_181" data-name="Ellipse 181" transform="translate(425 -1715)" fill="#fff" stroke="#bf161f" stroke-width="2">
      <circle cx="20" cy="20" r="20" stroke="none"/>
      <circle cx="20" cy="20" r="19" fill="none"/>
    </g>
    <g id="Goal" transform="translate(432.024 -1707.963)">
      <path id="Path_2534" data-name="Path 2534" d="M13.444,22.885a9.442,9.442,0,1,1,1.883-18.7.859.859,0,1,1-.343,1.683,7.726,7.726,0,1,0,6.186,7.571,7.863,7.863,0,0,0-.14-1.478.858.858,0,1,1,1.686-.325,9.452,9.452,0,0,1-9.271,11.245Z" transform="translate(-0.566 -0.566)" fill="#bf161f"/>
      <path id="Path_2535" data-name="Path 2535" d="M14.15,19.3A5.15,5.15,0,1,1,15.206,9.11a.858.858,0,1,1-.352,1.68,3.434,3.434,0,1,0,2.661,2.675.858.858,0,1,1,1.682-.343A5.15,5.15,0,0,1,14.15,19.3Z" transform="translate(-1.272 -1.274)" fill="#bf161f"/>
      <path id="Path_2536" data-name="Path 2536" d="M14.858,13.734a.858.858,0,0,1-.607-1.465l4.04-4.04V4.292a.858.858,0,0,1,.251-.607L21.977.252a.858.858,0,0,1,1.465.607V4.292h3.434a.858.858,0,0,1,.607,1.465L24.049,9.191a.858.858,0,0,1-.607.252H19.506l-4.04,4.04A.858.858,0,0,1,14.858,13.734Zm5.15-6.009h3.078L24.8,6.009h-2.22a.858.858,0,0,1-.858-.858V2.931L20.009,4.648Z" transform="translate(-1.981 0)" fill="#bf161f"/>
      <path id="Path_2537" data-name="Path 2537" d="M12.878,25.752a12.876,12.876,0,1,1,3.8-25.18.859.859,0,1,1-.506,1.641,11.147,11.147,0,1,0,7.382,7.419.858.858,0,1,1,1.643-.5A12.885,12.885,0,0,1,12.878,25.752Z" transform="translate(0)" fill="#bf161f"/>
      <path id="Path_2538" data-name="Path 2538" d="M20.858,9.292a.858.858,0,0,1-.607-1.465l2.575-2.575a.858.858,0,1,1,1.214,1.214L21.465,9.04A.858.858,0,0,1,20.858,9.292Z" transform="translate(-2.83 -0.708)" fill="#bf161f"/>
    </g>
  </g>
</svg>
