<svg xmlns="http://www.w3.org/2000/svg" width="37.536" height="36.5" viewBox="0 0 37.536 36.5">
  <path id="Path_2426" data-name="Path 2426" d="M3,20l3.778-3.778m0,0L20,3,33.222,16.222m-26.444,0V35.111A1.889,1.889,0,0,0,8.667,37h5.667M33.222,16.222,37,20m-3.778-3.778V35.111A1.889,1.889,0,0,1,31.333,37H25.667M14.333,37a1.889,1.889,0,0,0,1.889-1.889V27.556a1.889,1.889,0,0,1,1.889-1.889h3.778a1.889,1.889,0,0,1,1.889,1.889v7.556A1.889,1.889,0,0,0,25.667,37m0,0h0" transform="translate(-1.232 -1.75)" fill="none" stroke="#fff" stroke-linecap="round" stroke-linejoin="round" stroke-width="2.5"/>
</svg>
