<svg id="Icon-Upload2" xmlns="http://www.w3.org/2000/svg" width="45" height="43" viewBox="0 0 45 43">
  <path id="Vector" d="M22.5,22.76l8.673,9.12-2.893,3.042-3.737-3.93V43H20.456V30.988l-3.737,3.935L13.826,31.88ZM22.5,0a13.917,13.917,0,0,1,9.518,3.812,15.319,15.319,0,0,1,4.7,9.5,11.271,11.271,0,0,1,6.269,4.652,12.287,12.287,0,0,1,1.973,7.8,12.1,12.1,0,0,1-3.242,7.313A11.019,11.019,0,0,1,34.767,36.5v-4.33a6.929,6.929,0,0,0,2.661-.991,7.3,7.3,0,0,0,2.089-2,7.707,7.707,0,0,0,1.192-2.691,7.905,7.905,0,0,0,.11-2.967,7.769,7.769,0,0,0-.989-2.78,7.384,7.384,0,0,0-1.935-2.162,6.987,6.987,0,0,0-2.579-1.206,6.81,6.81,0,0,0-2.822-.063,11.293,11.293,0,0,0-.051-4.75A10.983,10.983,0,0,0,30.451,8.3a10.321,10.321,0,0,0-3.545-2.944,9.768,9.768,0,0,0-8.81,0A10.321,10.321,0,0,0,14.551,8.3a10.983,10.983,0,0,0-1.992,4.264,11.293,11.293,0,0,0-.051,4.75A6.874,6.874,0,0,0,7.149,18.5a7.564,7.564,0,0,0-2.993,4.823A7.84,7.84,0,0,0,5.281,28.96a7.139,7.139,0,0,0,4.586,3.148l.368.064V36.5A11.018,11.018,0,0,1,3.287,33.08,12.1,12.1,0,0,1,.044,25.767a12.288,12.288,0,0,1,1.972-7.8,11.271,11.271,0,0,1,6.269-4.652,15.317,15.317,0,0,1,4.7-9.505A13.915,13.915,0,0,1,22.5,0Z" transform="translate(0)" fill="#2394ae"/>
</svg>
