<svg id="Icon-Upload1" xmlns="http://www.w3.org/2000/svg" width="22.421" height="20.202" viewBox="0 0 22.421 20.202">
  <path id="Vector" d="M11.21,10.693l4.321,4.285-1.441,1.429-1.862-1.846V20.2H10.192V14.559L8.33,16.407,6.889,14.978ZM11.21,0a7.164,7.164,0,0,1,4.742,1.791,7.053,7.053,0,0,1,2.34,4.466,5.6,5.6,0,0,1,3.123,2.185,5.521,5.521,0,0,1-.633,7.1,5.621,5.621,0,0,1-3.461,1.608V15.115a3.57,3.57,0,0,0,2.367-1.4,3.521,3.521,0,0,0-.808-4.98,3.588,3.588,0,0,0-2.691-.6A5.019,5.019,0,0,0,15.172,3.9a5.117,5.117,0,0,0-7.922,0A5.019,5.019,0,0,0,6.232,8.135a3.589,3.589,0,0,0-2.67.556,3.529,3.529,0,0,0,1.354,6.393l.183.03V17.15a5.621,5.621,0,0,1-3.462-1.608A5.521,5.521,0,0,1,1,8.442,5.6,5.6,0,0,1,4.128,6.257a7.052,7.052,0,0,1,2.34-4.466A7.163,7.163,0,0,1,11.21,0Z" transform="translate(0 0)" fill="#fff"/>
</svg>
