<svg xmlns="http://www.w3.org/2000/svg" width="15.724" height="15.724" viewBox="0 0 15.724 15.724">
  <g id="Icon_feather-image" data-name="Icon feather-image" transform="translate(-4 -4)">
    <path id="Path_368" data-name="Path 368" d="M6.113,4.5H17.4a1.613,1.613,0,0,1,1.613,1.613V17.4A1.613,1.613,0,0,1,17.4,19.017H6.113A1.613,1.613,0,0,1,4.5,17.4V6.113A1.613,1.613,0,0,1,6.113,4.5Z" fill="none" stroke="#000" stroke-linecap="round" stroke-linejoin="round" stroke-width="1"/>
    <path id="Path_369" data-name="Path 369" d="M12.919,11.71a1.21,1.21,0,1,1-1.21-1.21A1.21,1.21,0,0,1,12.919,11.71Z" transform="translate(-2.774 -2.774)" fill="none" stroke="#000" stroke-linecap="round" stroke-linejoin="round" stroke-width="1"/>
    <path id="Path_370" data-name="Path 370" d="M20.4,19.032,16.371,15,7.5,23.871" transform="translate(-1.387 -4.855)" fill="none" stroke="#000" stroke-linecap="round" stroke-linejoin="round" stroke-width="1"/>
  </g>
</svg>
