<svg xmlns="http://www.w3.org/2000/svg" width="55" height="55" viewBox="0 0 55 55">
  <g id="plan_circle" data-name="plan circle" transform="translate(-416 -287)">
    <circle id="Ellipse_169" data-name="Ellipse 169" cx="27.5" cy="27.5" r="27.5" transform="translate(416 287)" fill="#bf161f"/>
    <g id="chess_2" data-name="chess 2" transform="translate(427.653 298.149)">
      <path id="Path_2541" data-name="Path 2541" d="M21.628,23.75,20,14.806h.788a.985.985,0,0,0,0-1.97h-.808l.808-4.768a.985.985,0,0,0-.276-.857l-1.97-1.97a.985.985,0,0,0-.709-.286h-.985V2.985a.985.985,0,1,0-1.97,0v1.97H13.9a.985.985,0,0,0-.7.286l-1.97,1.97a.985.985,0,0,0-.276.857l.8,4.768H10.94a.985.985,0,1,0,0,1.97h.788L10.1,23.75A3.861,3.861,0,0,0,7,27.533V28.6a.985.985,0,0,0,.985.985H23.746a.985.985,0,0,0,.985-.985V27.533A3.861,3.861,0,0,0,21.628,23.75Zm-8.649-15.5,1.32-1.32h3.133l1.32,1.32-.768,4.59H13.748ZM18,14.806l1.606,8.866H12.122l1.606-8.866Zm4.758,12.806H8.97v-.079a1.891,1.891,0,0,1,1.891-1.891H20.87a1.891,1.891,0,0,1,1.891,1.891Z" transform="translate(-0.075)" fill="#fff"/>
      <path id="Path_2542" data-name="Path 2542" d="M3.684,6.655l.286-.3V8.91a2.955,2.955,0,0,0,2.955,2.955H7.91a.985.985,0,1,0,0-1.97H6.925A.985.985,0,0,1,5.94,8.91V6.359l.286.3a.989.989,0,1,0,1.4-1.4l-1.97-1.97a.985.985,0,0,0-1.4,0l-1.97,1.97a.989.989,0,0,0,1.4,1.4Z" transform="translate(0 -0.015)" fill="#fff"/>
      <path id="Path_2543" data-name="Path 2543" d="M23.985,11.866h.985A2.955,2.955,0,0,0,27.925,8.91V6.359l.286.3a.989.989,0,1,0,1.4-1.4l-1.97-1.97a.985.985,0,0,0-1.4,0l-1.97,1.97a.989.989,0,0,0,1.4,1.4l.286-.3V8.91a.985.985,0,0,1-.985.985h-.985a.985.985,0,1,0,0,1.97Z" transform="translate(-0.314 -0.015)" fill="#fff"/>
      <path id="Path_2544" data-name="Path 2544" d="M7.625,22.211a.985.985,0,0,0-1.4,0l-.286.3V19.955a.985.985,0,0,1,.985-.985H7.91a.985.985,0,0,0,0-1.97H6.925A2.955,2.955,0,0,0,3.97,19.955v2.571l-.286-.3a.989.989,0,0,0-1.4,1.4l1.97,1.97a.985.985,0,0,0,1.4,0l1.97-1.97a.985.985,0,0,0,0-1.419Z" transform="translate(0 -0.224)" fill="#fff"/>
      <path id="Path_2545" data-name="Path 2545" d="M28.211,22.211l-.286.3V19.955A2.955,2.955,0,0,0,24.97,17h-.985a.985.985,0,1,0,0,1.97h.985a.985.985,0,0,1,.985.985v2.571l-.286-.3a.989.989,0,0,0-1.4,1.4l1.97,1.97a.985.985,0,0,0,1.4,0l1.97-1.97a.989.989,0,0,0-1.4-1.4Z" transform="translate(-0.314 -0.224)" fill="#fff"/>
    </g>
  </g>
</svg>
