<svg xmlns="http://www.w3.org/2000/svg" width="16.017" height="16.017" viewBox="0 0 16.017 16.017">
  <g id="Icon_ionic-ios-add-circle-outline" data-name="Icon ionic-ios-add-circle-outline" transform="translate(-3.375 -3.375)">
    <path id="Path_366" data-name="Path 366" d="M18.1,14H15.228V11.128a.616.616,0,1,0-1.232,0V14H11.128a.59.59,0,0,0-.616.616.6.6,0,0,0,.616.616H14V18.1a.6.6,0,0,0,.616.616.613.613,0,0,0,.616-.616V15.228H18.1A.616.616,0,1,0,18.1,14Z" transform="translate(-3.229 -3.229)"/>
    <path id="Path_367" data-name="Path 367" d="M11.383,4.453a6.928,6.928,0,1,1-4.9,2.029,6.884,6.884,0,0,1,4.9-2.029m0-1.078a8.008,8.008,0,1,0,8.008,8.008,8.007,8.007,0,0,0-8.008-8.008Z"/>
  </g>
</svg>
