<svg xmlns="http://www.w3.org/2000/svg" width="40" height="40" viewBox="0 0 40 40">
  <g id="Group_14153" data-name="Group 14153" transform="translate(-423 -989)">
    <g id="Ellipse_185" data-name="Ellipse 185" transform="translate(423 989)" fill="#fff" stroke="#2394ae" stroke-width="2">
      <circle cx="20" cy="20" r="20" stroke="none"/>
      <circle cx="20" cy="20" r="19" fill="none"/>
    </g>
    <g id="Group_2863" data-name="Group 2863" transform="translate(4.151 82.771)">
      <path id="Path_2516" data-name="Path 2516" d="M24.545,11.172,21.074,9.01a1.322,1.322,0,0,0-2.1.807L17.96,13.8c-.265,1,.349,1.612,1.311,1.226l1.484-.592a20.37,20.37,0,0,1,.414,2.4,1.282,1.282,0,0,0,1.274,1.152c.042,0,.086,0,.131-.006a1.283,1.283,0,0,0,1.147-1.4,22.832,22.832,0,0,0-.554-3.1l1.274-.509C25.4,12.58,25.428,11.717,24.545,11.172Z" transform="translate(424.863 906.544)" fill="#2394ae"/>
      <path id="Path_2517" data-name="Path 2517" d="M14.713,21.959a1.28,1.28,0,0,0-1.812,0l-1.522,1.524L9.856,21.959a1.281,1.281,0,0,0-1.812,1.812l1.524,1.524L8.043,26.818A1.281,1.281,0,1,0,9.855,28.63l1.522-1.524L12.9,28.63a1.281,1.281,0,0,0,1.812-1.812l-1.524-1.524,1.524-1.524A1.279,1.279,0,0,0,14.713,21.959Z" transform="translate(421.983 910.155)" fill="#2394ae"/>
      <path id="Path_2518" data-name="Path 2518" d="M18.711,22.208a7.938,7.938,0,0,1-2.321,1.374,1.281,1.281,0,0,0,.391,2.5,1.3,1.3,0,0,0,.384-.059,10.158,10.158,0,0,0,3.184-1.847,1.281,1.281,0,0,0-1.639-1.97Z" transform="translate(424.188 910.247)" fill="#2394ae"/>
      <path id="Path_2519" data-name="Path 2519" d="M22.124,16.9a1.278,1.278,0,0,0-1.46,1.074,9.655,9.655,0,0,1-1.023,3.134A1.282,1.282,0,0,0,21.9,22.324a12.184,12.184,0,0,0,1.3-3.964A1.281,1.281,0,0,0,22.124,16.9Z" transform="translate(425.311 908.833)" fill="#2394ae"/>
      <path id="Path_2520" data-name="Path 2520" d="M12.044,9.333a4.379,4.379,0,1,0,4.379,4.379A4.383,4.383,0,0,0,12.044,9.333Zm0,6.195a1.816,1.816,0,1,1,1.816-1.816A1.817,1.817,0,0,1,12.044,15.528Z" transform="translate(421.983 906.707)" fill="#2394ae"/>
    </g>
  </g>
</svg>
