<svg xmlns="http://www.w3.org/2000/svg" xmlns:xlink="http://www.w3.org/1999/xlink" width="40" height="40" viewBox="0 0 40 40">
  <defs>
    <clipPath id="clip-path">
      <rect id="Rectangle_12095" data-name="Rectangle 12095" width="11.563" height="27.574" transform="translate(381 -960)" fill="#fff" stroke="#bf161f" stroke-width="1"/>
    </clipPath>
    <clipPath id="clip-path-2">
      <rect id="Rectangle_12096" data-name="Rectangle 12096" width="11.563" height="27.574" transform="translate(0 0)" fill="#fff" stroke="#bf161f" stroke-width="1"/>
    </clipPath>
  </defs>
  <g id="Group_14157" data-name="Group 14157" transform="translate(-425 947)">
    <g id="Ellipse_203" data-name="Ellipse 203" transform="translate(425 -947)" fill="#fff" stroke="#bf161f" stroke-width="2">
      <circle cx="20" cy="20" r="20" stroke="none"/>
      <circle cx="20" cy="20" r="19" fill="none"/>
    </g>
    <g id="aim" transform="translate(430.199 -948.602)">
      <path id="Path_9143" data-name="Path 9143" d="M22.722,13.921H20.892a6.161,6.161,0,0,0-5.21-5.21V7.76a.88.88,0,0,0,0-1.76h-1.76a.88.88,0,0,0,0,1.76v.951a6.161,6.161,0,0,0-5.21,5.21H6.88a.88.88,0,1,0,0,1.76H8.711a6.161,6.161,0,0,0,5.21,5.21v.951a.88.88,0,1,0,0,1.76h1.76a.88.88,0,1,0,0-1.76v-.951a6.161,6.161,0,0,0,5.21-5.21h1.831a.88.88,0,0,0,0-1.76Zm-3.608,0H15.681V10.489a4.4,4.4,0,0,1,3.432,3.432Zm-5.193-3.432v3.432H10.489a4.4,4.4,0,0,1,3.432-3.432Zm-3.432,5.193h3.432v3.432a4.4,4.4,0,0,1-3.432-3.432Zm5.193,3.432V15.681h3.432a4.4,4.4,0,0,1-3.432,3.432Z" fill="#bf161f"/>
    </g>
    <g id="Mask_Group_2875" data-name="Mask Group 2875" transform="matrix(0.946, 0.326, -0.326, 0.946, -219.003, -153.875)" clip-path="url(#clip-path)">
      <path id="two-hands-1" d="M8.73,2.249a2.6,2.6,0,0,0-.442.006A2.4,2.4,0,0,0,6.2,3.868l.034-.086L3.639,9.48a.877.877,0,0,0-.076.433l.39,4.947a.876.876,0,0,0,.011.094l1.578,8.413-1.1,3.29a.877.877,0,0,0,1.664.555l1.169-3.506a.877.877,0,0,0,.03-.439L5.7,14.676,5.328,10l2.5-5.492a.877.877,0,0,0,.034-.086.633.633,0,0,1,.859-.407.629.629,0,0,1,.462.864L8.213,8.965A.877.877,0,0,0,8.2,9.3l.218,1.436A2.542,2.542,0,0,0,7.244,13.61l-.016-.066,1.018,5.04a.877.877,0,1,0,1.718-.347L8.946,13.2q-.006-.033-.015-.065a.771.771,0,0,1,.484-.942,1.057,1.057,0,0,1,.639-.01.492.492,0,0,1,.362.341l1.922,5.817,0,0a5.509,5.509,0,0,1-.494,4.574.877.877,0,0,0-.128.293L10.8,27.238a.877.877,0,0,0,1.71.391l.921-4.027h0A6.938,6.938,0,0,0,14,17.788v0l-1.926-5.828,0-.014a2.344,2.344,0,0,0-1.452-1.423,2.73,2.73,0,0,0-.478-.115L9.958,9.2l.931-3.92a2.526,2.526,0,0,0-.3-1.965A2.48,2.48,0,0,0,8.73,2.249Zm13.33,0A2.48,2.48,0,0,0,20.2,3.32a2.526,2.526,0,0,0-.3,1.965l.931,3.92-.183,1.2a2.73,2.73,0,0,0-.479.115,2.342,2.342,0,0,0-1.451,1.423l-.006.014-1.925,5.826s0,0,0,0v0a6.939,6.939,0,0,0,.575,5.812l.922,4.029a.876.876,0,1,0,1.709-.391l-.922-4.029a.877.877,0,0,0-.127-.293,5.509,5.509,0,0,1-.494-4.574v0l1.923-5.817a.491.491,0,0,1,.361-.341,1.057,1.057,0,0,1,.639.01.771.771,0,0,1,.485.942q-.009.032-.016.065l-1.018,5.04a.877.877,0,1,0,1.719.347l1.018-5.04-.016.066a2.543,2.543,0,0,0-1.173-2.875L22.59,9.3a.877.877,0,0,0-.014-.334L21.605,4.88a.628.628,0,0,1,.461-.864.634.634,0,0,1,.86.407.878.878,0,0,0,.034.086L25.462,10l-.369,4.671-1.688,8.477a.877.877,0,0,0,.035.469l1.152,3.189a.877.877,0,0,0,1.649-.6l-1.069-2.959,1.651-8.289a.876.876,0,0,0,.014-.1l.389-4.947a.877.877,0,0,0-.075-.433l-2.6-5.7.034.086A2.4,2.4,0,0,0,22.5,2.255,2.584,2.584,0,0,0,22.06,2.249Z" transform="translate(364.832 -961.045)" fill="#bf161f"/>
    </g>
    <g id="Mask_Group_2876" data-name="Mask Group 2876" transform="translate(445.718 -911.459) rotate(161)" clip-path="url(#clip-path-2)">
      <path id="two-hands-1-2" data-name="two-hands-1" d="M5.17,26.061a2.6,2.6,0,0,1-.442-.006,2.4,2.4,0,0,1-2.09-1.614l.034.086L.079,18.83A.877.877,0,0,1,0,18.4l.39-4.947A.876.876,0,0,1,.4,13.357L1.983,4.944l-1.1-3.29A.877.877,0,0,1,2.55,1.1L3.718,4.605a.876.876,0,0,1,.03.439l-1.611,8.59L1.768,18.31l2.5,5.491a.877.877,0,0,1,.034.086.633.633,0,0,0,.859.407.629.629,0,0,0,.462-.864l-.971-4.086a.877.877,0,0,1-.014-.334l.218-1.436A2.542,2.542,0,0,1,3.684,14.7l-.016.066,1.018-5.04a.877.877,0,1,1,1.718.347l-1.018,5.04q-.006.033-.015.065a.771.771,0,0,0,.484.941,1.057,1.057,0,0,0,.639.01.492.492,0,0,0,.362-.341L8.777,9.972l0,0a5.509,5.509,0,0,0-.494-4.574A.877.877,0,0,1,8.158,5.1L7.236,1.073A.877.877,0,0,1,8.945.682l.921,4.027h0a6.937,6.937,0,0,1,.576,5.812v0L8.515,16.353l0,.014a2.344,2.344,0,0,1-1.452,1.423,2.73,2.73,0,0,1-.478.115l-.183,1.2.931,3.92a2.526,2.526,0,0,1-.3,1.965,2.48,2.48,0,0,1-1.862,1.07Zm13.33,0a2.48,2.48,0,0,1-1.863-1.07,2.526,2.526,0,0,1-.3-1.965l.931-3.92-.183-1.2a2.73,2.73,0,0,1-.479-.115,2.342,2.342,0,0,1-1.451-1.423l-.006-.014-1.925-5.826s0,0,0,0v0A6.939,6.939,0,0,1,13.8,4.71L14.724.682a.876.876,0,1,1,1.709.391L15.511,5.1a.876.876,0,0,1-.127.293,5.509,5.509,0,0,0-.494,4.574v0l1.923,5.817a.491.491,0,0,0,.361.341,1.057,1.057,0,0,0,.639-.01.771.771,0,0,0,.485-.941q-.009-.032-.016-.065l-1.018-5.04a.877.877,0,0,1,1.719-.347L20,14.767l-.016-.066a2.543,2.543,0,0,1-1.173,2.875l.218,1.436a.876.876,0,0,1-.014.334l-.971,4.086a.628.628,0,0,0,.461.864.634.634,0,0,0,.86-.407A.878.878,0,0,1,19.4,23.8l2.5-5.491-.369-4.671L19.845,5.162a.876.876,0,0,1,.035-.469L21.032,1.5a.877.877,0,0,1,1.649.6L21.612,5.059l1.651,8.289a.877.877,0,0,1,.014.1l.389,4.947a.876.876,0,0,1-.075.433l-2.6,5.7.034-.086a2.4,2.4,0,0,1-2.09,1.614A2.584,2.584,0,0,1,18.5,26.061Z" transform="translate(-12.608 0.309)" fill="#bf161f"/>
    </g>
  </g>
</svg>
