<svg id="hand_money" data-name="hand money" xmlns="http://www.w3.org/2000/svg" width="22.363" height="15.085" viewBox="0 0 22.363 15.085">
  <path id="Path_15" data-name="Path 15" d="M165.521,10.454q-.058-.057-.121-.134a6.773,6.773,0,0,0-.531-.536.926.926,0,0,1-.336-.573V9.078l0-.132a1.871,1.871,0,0,1,.706-1l.154-.151.322-.315q.207-.2.411-.405l.317-.311.152-.15.212-.207.062-.063a1.621,1.621,0,0,1,.172-.135.727.727,0,0,1,.211.041l.121.042.13.052.142.056.147.059.149.059.364.145a6.167,6.167,0,0,1-.5.527l-.067.065c-.094.089-.187.179-.282.267-.07.065-.138.131-.207.2l-.065.06a1.324,1.324,0,0,0-.143.162.56.56,0,0,0,.142.314,1.441,1.441,0,0,1-.1,1.748.231.231,0,0,0-.044.165.645.645,0,0,0,.213.236l2.271,2.237.29-.143.132-.066.132-.066a1.663,1.663,0,0,1,1.178-.024,1.837,1.837,0,0,1,.461.258l.045.039c.22-.184.385-.33.588-.531l.083-.082.177-.174.279-.275.794-.781.487-.479.185-.183.258-.254.078-.077,2.8-2.646-.06-.086a1.82,1.82,0,0,1-.361-1.357,2.416,2.416,0,0,1,.379-.783L174.92,2.455l-.288.143-.131.066-.13.066a1.574,1.574,0,0,1-1.137.014c-.143-.064-.282-.134-.422-.206l-.169-.082-.8.783c-.072-.105-.124-.327-.228-.509a3.077,3.077,0,0,0-.4-.522,1.092,1.092,0,0,1,.262-.351l.111-.111.121-.119.124-.123.262-.257q.167-.163.332-.329l.258-.254L172.8.543a1.4,1.4,0,0,1,1-.542h.108a1.978,1.978,0,0,1,.989.684l.159.154.428.419.358.35.845.827.871.851.749.732.447.437.42.411.154.15a1.746,1.746,0,0,1,.623,1.007,1.269,1.269,0,0,1-.443.845c-.072.063-.144.124-.219.183-.1.085-.193.178-.287.27l-.146.143-.172.169-.2.194-.106.1-2.349,2.3-.347.34-.07.068-1.12,1.1-1.15,1.127-.709.695-.543.532-.223.219-.3.3-.089.088a1.1,1.1,0,0,1-.809.391,1.192,1.192,0,0,1-.685-.26" transform="translate(-157.595)" fill="#929292"/>
  <path id="Path_16" data-name="Path 16" d="M93.4,10.012a2.48,2.48,0,0,1,.436,1.915,2.185,2.185,0,0,1-.958,1.232,2.361,2.361,0,0,1-.991.211l-.09,0a4.624,4.624,0,0,1-1.653-.508l-.274-.111-.084-.035a.542.542,0,0,0-.33-.049,1.907,1.907,0,0,0-.361.306l-.073.072-.227.227-.229.228-.142.142q-.082.082-.167.161h-.042q0-.529-.007-1.058,0-.246,0-.491t0-.474c0-.06,0-.121,0-.181,0-.085,0-.169,0-.253V11.2a.423.423,0,0,1,.069-.194.473.473,0,0,1,.242-.089,1.339,1.339,0,0,1,.178.056l.106.041.115.045.12.047.387.151.265.1q.531.205,1.06.414l.249.1.287.114a1.743,1.743,0,0,0,.865.122.754.754,0,0,0,.418-.38,1.1,1.1,0,0,0-.09-.877,2.35,2.35,0,0,0-1.013-.573l-.154-.06q-.457-.178-.918-.343c-.238-.087-.473-.18-.708-.273l-.246-.1c-.25-.1-.5-.2-.747-.3l-.24-.1-.3-.121a1.356,1.356,0,0,0-.974-.1.591.591,0,0,0-.223.167l-.082.067a2.232,2.232,0,0,0-.377.83l-.032.1-.069.215-.146.456-.074.23q-.131.408-.265.814c-.034.1-.067.2-.1.308a6.973,6.973,0,0,1-.292.774,9.112,9.112,0,0,0-.412,3.9c.006.336.008.671.011,1.007q.008,1.031.025,2.063h.163q.76,0,1.52,0h.782q.377,0,.755,0h.287c.134,0,.269,0,.4,0l.12,0a.557.557,0,0,1,.4.116c.075.083.906.934.939.965a.234.234,0,0,1,.069.158l-2.272.007-1.055,0-.92,0H85.14a1.569,1.569,0,0,1-.925-.221c-.11-.078-.12-.116-.126-.124A1.176,1.176,0,0,1,84,20.579l-.043-.085a1.462,1.462,0,0,1-.087-.552l0-.156c0-.056,0-.113,0-.17s0-.12,0-.18c-.007-.551-.01-1.1-.013-1.653q0-.609-.011-1.217-.006-.43-.006-.861c0-.17,0-.341-.005-.511a6.094,6.094,0,0,1,.456-2.514c.095-.251.169-.506.245-.763.188-.625.4-1.242.612-1.858.06-.174.118-.348.176-.523a2.626,2.626,0,0,1,.835-1.464l.087-.038.19-.119a2.6,2.6,0,0,1,2.463.057l.143.054q.634.242,1.265.492.4.158.805.311l.51.2.251.095a3.8,3.8,0,0,1,1.454.812" transform="translate(-80.293 -7.31)" fill="#929292"/>
  <path id="Path_17" data-name="Path 17" d="M.124,156.127a1.9,1.9,0,0,1,.256-.016H2.709l.112.016a.544.544,0,0,1,.1.4v.084c0,.093,0,.187,0,.28,0,.067,0,.134,0,.2q0,.273,0,.545v.455q0,.536,0,1.072,0,.554,0,1.108,0,.475,0,.95,0,.284,0,.568,0,.267,0,.534v.2c0,.089,0,.178,0,.267v.151a.421.421,0,0,1-.073.2.507.507,0,0,1-.322.062H.278a.279.279,0,0,1-.24-.14,1.179,1.179,0,0,1-.017-.2l0-.125v-.137l0-.144c0-.159,0-.318,0-.476l0-.334q0-.353,0-.705t0-.714c-.008-1.1-.016-2.2.009-3.3l0-.1c0-.094,0-.188.007-.282l0-.156a.544.544,0,0,1,.1-.247Z" transform="translate(0.004 -149.673)" fill="#929292"/>
  <path id="Subtraction_1" data-name="Subtraction 1" d="M57.719,62.317h0A2.739,2.739,0,0,1,55.49,61.18a2.613,2.613,0,0,1-.325-2.438,2.391,2.391,0,0,0,.956-.284l.235.23a1,1,0,0,0-.208.66.894.894,0,0,0,.28.607.8.8,0,0,0,.183.135.892.892,0,0,0,.185.075.6.6,0,0,0,.156.019h.044a1.582,1.582,0,0,0,.191-.02,1.493,1.493,0,0,0,.2-.055c.081-.027.145-.05.19-.069s.11-.046.192-.083l.167-.071c.037-.015.088-.034.149-.056a.869.869,0,0,1,.149-.042,1.1,1.1,0,0,1,.124-.011h.014a.27.27,0,0,1,.108.02.316.316,0,0,1,.184.352.614.614,0,0,1-.191.331.81.81,0,0,1-.166.124,1.1,1.1,0,0,1-.172.081,1.272,1.272,0,0,1-.155.044c-.051.011-.089.018-.112.021l-.045,0h0a.082.082,0,0,0-.048.022l-.01.012a.063.063,0,0,0-.012.065l.111.379a.07.07,0,0,0,.073.055l.05,0c.019,0,.058-.007.116-.017a1.185,1.185,0,0,0,.172-.043,1.574,1.574,0,0,0,.206-.089,1.354,1.354,0,0,0,.228-.146l.3.294a.076.076,0,0,0,.109,0l.231-.226a.075.075,0,0,0,0-.107l-.307-.3a1.07,1.07,0,0,0,.207-.65A.8.8,0,0,0,59,59.431a.841.841,0,0,0-.148-.116.979.979,0,0,0-.149-.076.6.6,0,0,0-.16-.038,1.544,1.544,0,0,0-.158-.009.874.874,0,0,0-.164.018c-.063.012-.115.024-.157.035s-.1.029-.16.053-.115.044-.15.058l-.148.061c-.085.036-.149.063-.192.079s-.1.035-.167.057a.677.677,0,0,1-.164.035h-.016a.479.479,0,0,1-.113-.015.247.247,0,0,1-.116-.063.328.328,0,0,1-.1-.307.572.572,0,0,1,.17-.31.843.843,0,0,1,.14-.11,1.286,1.286,0,0,1,.629-.2h.014a.059.059,0,0,0,.042-.017l.007-.008a.073.073,0,0,0,.019-.058l-.055-.4a.073.073,0,0,0-.073-.065h-.061a1.428,1.428,0,0,0-.143.015,1.509,1.509,0,0,0-.458.139,1.539,1.539,0,0,0-.271.161l-.177-.173a1.971,1.971,0,0,0,.662-1.132,2.791,2.791,0,0,1,1.56.143,2.649,2.649,0,0,1,1.647,2.975A2.7,2.7,0,0,1,57.719,62.317Z" transform="translate(-43.07 -52.174)" fill="#929292"/>
</svg>
