<svg xmlns="http://www.w3.org/2000/svg" width="20.681" height="20.678" viewBox="0 0 20.681 20.678">
  <g id="s-arrow-up" transform="translate(330.728 -605.884) rotate(60)">
    <path id="Path_109" data-name="Path 109" d="M366.869,211h.946c.038.008.076.018.114.024.388.06.782.1,1.165.183a7.553,7.553,0,0,1,5.7,6.055c.046.276.077.554.115.832v.946c-.009.043-.019.086-.026.129-.049.336-.079.675-.15,1.006a7.567,7.567,0,1,1-8.7-9.061C366.313,211.068,366.592,211.038,366.869,211Zm6.858,7.566a6.385,6.385,0,1,0-6.38,6.386A6.395,6.395,0,0,0,373.727,218.566Z" transform="translate(6.129 367.004)" fill="#2394ae"/>
    <path id="Path_110" data-name="Path 110" d="M465.2,300.56c-.78,0-1.538,0-2.3,0a.588.588,0,0,1-.6-.478.641.641,0,0,1,.119-.485q1.092-1.715,2.181-3.431c.233-.368.466-.736.7-1.1a.588.588,0,0,1,1.051,0q1.435,2.27,2.867,4.543a.6.6,0,0,1-.529.957c-.764,0-1.527,0-2.316,0v.158c0,.71,0,1.42,0,2.13a.579.579,0,0,1-.454.576.567.567,0,0,1-.644-.292.782.782,0,0,1-.073-.324c-.006-.69,0-1.381,0-2.071Zm2.486-1.182-1.861-2.95-1.873,2.95Z" transform="translate(-92.347 286.487)" fill="#2394ae"/>
  </g>
</svg>
