<svg xmlns="http://www.w3.org/2000/svg" width="10.228" height="10.229" viewBox="0 0 10.228 10.229">
  <path id="search-icon-light" d="M536.427,237.713a4.59,4.59,0,1,1-.114-7.237,4.464,4.464,0,0,1,1.786,3.089,4.539,4.539,0,0,1-.986,3.457.719.719,0,0,1,.122.08q.885.881,1.768,1.765a.513.513,0,0,1,.159.531.507.507,0,0,1-.805.263,1.217,1.217,0,0,1-.1-.1q-.875-.874-1.75-1.75A.86.86,0,0,1,536.427,237.713Zm.691-3.575a3.571,3.571,0,1,0-3.576,3.569A3.563,3.563,0,0,0,537.118,234.138Z" transform="translate(-528.956 -229.544)" fill="#fff"/>
</svg>
