<svg xmlns="http://www.w3.org/2000/svg" width="17.722" height="17.724" viewBox="0 0 17.722 17.724">
  <path id="search" d="M541.9,243.7a7.954,7.954,0,1,1-.2-12.539,7.735,7.735,0,0,1,3.094,5.353,7.865,7.865,0,0,1-1.709,5.989,1.247,1.247,0,0,1,.211.139q1.534,1.527,3.064,3.059a.888.888,0,0,1,.275.92.878.878,0,0,1-1.4.455,2.084,2.084,0,0,1-.182-.169q-1.517-1.515-3.032-3.032A1.506,1.506,0,0,1,541.9,243.7Zm1.2-6.194a6.188,6.188,0,1,0-6.2,6.185A6.173,6.173,0,0,0,543.1,237.5Z" transform="translate(-528.956 -229.544)"/>
</svg>
