<svg id="Send" xmlns="http://www.w3.org/2000/svg" width="18.66" height="18.179" viewBox="0 0 18.66 18.179">
  <path id="Path_2258" data-name="Path 2258" d="M370.507,271.259a2.444,2.444,0,0,1,.423-.954,1.96,1.96,0,0,1,2.433-.521c1.22.585,2.436,1.177,3.653,1.767q5.471,2.647,10.942,5.294a1.92,1.92,0,0,1,1.207,1.725,1.9,1.9,0,0,1-1.157,1.881l-3.128,1.516-11.449,5.542a1.976,1.976,0,0,1-2.44-.424,2.078,2.078,0,0,1-.449-.923.8.8,0,0,0-.036-.1v-.51c.065-.207.118-.418.2-.619q1.217-3.056,2.444-6.109a.4.4,0,0,0,0-.327q-.373-.908-.731-1.822-.959-2.452-1.913-4.906Zm16.766,6.747.012-.033c-.052-.027-.1-.056-.155-.081l-7.553-3.653q-3.359-1.625-6.719-3.245a.951.951,0,0,0-.52-.1c-.448.069-.627.5-.435.98q1.185,2.965,2.369,5.931a.269.269,0,0,0,.3.206q6.261-.009,12.522,0Zm.009,1.349,0-.035c-.04,0-.081-.005-.121-.005q-6.325,0-12.65,0a.191.191,0,0,0-.21.143q-.852,2.148-1.713,4.292c-.236.591-.478,1.181-.709,1.774a.64.64,0,0,0,.54.919.965.965,0,0,0,.449-.115q5.762-2.78,11.519-5.568Z" transform="translate(-370.507 -269.568)" fill="#bf161f"/>
</svg>
