<svg xmlns="http://www.w3.org/2000/svg" width="36.5" height="36.5" viewBox="0 0 36.5 36.5">
  <g id="Group_2978" data-name="Group 2978" transform="translate(1.25 1.25)">
    <path id="Path_2396" data-name="Path 2396" d="M16.836,5.488a3.256,3.256,0,0,1,6.328,0A3.256,3.256,0,0,0,28.024,7.5,3.258,3.258,0,0,1,32.5,11.978a3.256,3.256,0,0,0,2.012,4.858,3.256,3.256,0,0,1,0,6.328,3.256,3.256,0,0,0-2.014,4.86A3.258,3.258,0,0,1,28.022,32.5a3.256,3.256,0,0,0-4.858,2.012,3.256,3.256,0,0,1-6.328,0,3.256,3.256,0,0,0-4.86-2.014A3.258,3.258,0,0,1,7.5,28.022a3.256,3.256,0,0,0-2.012-4.858,3.256,3.256,0,0,1,0-6.328A3.256,3.256,0,0,0,7.5,11.976,3.258,3.258,0,0,1,11.978,7.5a3.255,3.255,0,0,0,4.858-2.012Z" transform="translate(-3 -3)" fill="none" stroke="#fff" stroke-linecap="round" stroke-linejoin="round" stroke-width="2.5"/>
    <path id="Path_2397" data-name="Path 2397" d="M19,14a5,5,0,1,1-5-5A5,5,0,0,1,19,14Z" transform="translate(3 3)" fill="none" stroke="#fff" stroke-linecap="round" stroke-linejoin="round" stroke-width="2.5"/>
  </g>
</svg>
