<svg id="user-avatar" xmlns="http://www.w3.org/2000/svg" xmlns:xlink="http://www.w3.org/1999/xlink" width="18.875" height="18.872" viewBox="0 0 18.875 18.872">
  <defs>
    <clipPath id="clip-path">
      <rect id="Rectangle_1846" data-name="Rectangle 1846" width="18.875" height="18.872" fill="#bf161f"/>
    </clipPath>
  </defs>
  <g id="Group_2702" data-name="Group 2702" clip-path="url(#clip-path)">
    <path id="Path_2354" data-name="Path 2354" d="M11.836,0a.835.835,0,0,1,.536.466.736.736,0,0,1-.614,1,2.349,2.349,0,0,1-.239.005H3.061a1.445,1.445,0,0,0-1.419.835A1.659,1.659,0,0,0,1.486,3q-.013,6.449-.005,12.9a1.418,1.418,0,0,0,.9,1.361A6.483,6.483,0,0,1,3.825,13.73a7.06,7.06,0,0,1,3.094-2.276A3.822,3.822,0,0,1,5.724,7.833,3.62,3.62,0,0,1,7.116,5.581a3.831,3.831,0,0,1,4.9,5.889,7.127,7.127,0,0,1,3.062,2.282,6.466,6.466,0,0,1,1.424,3.5,1.408,1.408,0,0,0,.9-1.221c.007-.092.006-.184.006-.276q0-4.22,0-8.44a1.157,1.157,0,0,1,.054-.4.7.7,0,0,1,.646-.469.725.725,0,0,1,.7.42c.026.055.049.111.073.166v9.214a.4.4,0,0,0-.033.082,2.933,2.933,0,0,1-2.937,2.532q-6.459.009-12.918,0A3.161,3.161,0,0,1,2,18.7a2.923,2.923,0,0,1-1.99-2.866q0-5.878,0-11.757c0-.405-.016-.812.006-1.216A2.862,2.862,0,0,1,1.668.307,6.185,6.185,0,0,1,2.622,0ZM9.422,17.4h5.139c.35,0,.492-.183.413-.518a5.5,5.5,0,0,0-1.854-3.04A5.373,5.373,0,0,0,8.473,12.56a5.567,5.567,0,0,0-4.547,4.245c-.117.419.019.59.45.59H9.422m.063-6.449A2.358,2.358,0,1,0,7.119,8.6a2.363,2.363,0,0,0,2.366,2.344" transform="translate(0)" fill="#bf161f"/>
    <path id="Path_2355" data-name="Path 2355" d="M328.555,3.649a.833.833,0,0,1-.92.594c-.606-.018-1.214,0-1.844,0v.208c0,.583,0,1.167,0,1.75a.74.74,0,1,1-1.473,0c0-.644,0-1.288,0-1.956h-.206c-.583,0-1.167,0-1.75,0a.74.74,0,1,1,0-1.473c.644,0,1.288,0,1.958,0v-.2c0-.547.014-1.094,0-1.64a.831.831,0,0,1,.594-.92h.295a.831.831,0,0,1,.594.919c-.018.546,0,1.092,0,1.639v.206c.631,0,1.238.014,1.845,0a.832.832,0,0,1,.919.594Z" transform="translate(-309.679)" fill="#bf161f"/>
  </g>
</svg>
