<svg id="Vector" xmlns="http://www.w3.org/2000/svg" width="16" height="16" viewBox="0 0 16 16">
  <path id="Vector_Stroke_" data-name="Vector (Stroke)" d="M2.828,1.259A4.489,4.489,0,0,1,9.183,7.6l-.009.009L6.927,9.851A4.5,4.5,0,0,1,.149,9.367a.748.748,0,0,1,1.2-.9,3,3,0,0,0,4.518.323h0L8.11,6.557A2.993,2.993,0,0,0,3.872,2.33L2.588,3.6a.748.748,0,1,1-1.056-1.06L2.82,1.266Z" transform="translate(5.555 0)" fill="#4e5d78"/>
  <path id="Vector_Stroke_2" data-name="Vector (Stroke)" d="M5.126.283A4.5,4.5,0,0,1,10.3,1.8a.748.748,0,0,1-1.2.9,3,3,0,0,0-4.518-.323L2.335,4.608A2.993,2.993,0,0,0,6.571,8.835L7.848,7.562A.748.748,0,0,1,8.907,8.619L7.626,9.9l-.009.009A4.489,4.489,0,0,1,1.262,3.565l.009-.009L3.518,1.314h0A4.5,4.5,0,0,1,5.126.283Z" transform="translate(0 4.835)" fill="#4e5d78"/>
</svg>
