<svg id="Icon_Fill_Send" data-name="Icon/Fill/Send" xmlns="http://www.w3.org/2000/svg" width="26" height="26" viewBox="0 0 26 26">
  <path id="Vector" d="M.99.076l24.664,12.39a.645.645,0,0,1,.253.224.565.565,0,0,1,0,.621.645.645,0,0,1-.253.224L.99,25.924a.723.723,0,0,1-.662-.009.641.641,0,0,1-.24-.223A.57.57,0,0,1,0,25.39V.61a.57.57,0,0,1,.088-.3A.641.641,0,0,1,.328.085.723.723,0,0,1,.99.076ZM2.672,14.22v8.074L21.175,13,2.672,3.706V11.78h6.68v2.44Z" transform="translate(0 0)" fill="#377dff"/>
</svg>
